<svg id="Layer_1" data-name="Layer 1" xmlns="http://www.w3.org/2000/svg" width="64" height="64" viewBox="0 0 64 64"><defs><style>.cls-1{fill:#1d1d1b;}</style></defs><title>arrow-1</title><path class="cls-1" d="M41.91,24.25c-.81-.31-.94,0-2.5.63S26.16,30.57,18.1,36.82s-5.63,7.37-5.63,7.37c.19.06.94.81,1.63.81s.5-.06,1.5-1.75,1.62-2.81,8.81-8.37S41.6,26,42.47,25.57,42.72,24.57,41.91,24.25Zm9.94-3c-.44-.56-8.8-2.82-9.31-2.12-.88,1.19,2.56,8.62,3.31,9.31S52.29,21.82,51.85,21.25ZM46,25.69c-.5-.62-2.07-4.94-1.88-5.12.53-.54,5.69.87,5.44,1.5S46.54,26.32,46,25.69Z"/></svg>